<svg xmlns="http://www.w3.org/2000/svg" width="2560" height="1440"
     viewBox="0 0 2560 1440" preserveAspectRatio="xMidYMid slice">
  <defs>
    <linearGradient id="bg" x1="0" y1="0" x2="1" y2="1"><stop offset="0" stop-color="#2f9f68"/><stop offset="0.3" stop-color="#27916b"/><stop offset="0.62" stop-color="#23767f"/><stop offset="0.86" stop-color="#2b5f9e"/><stop offset="1" stop-color="#274c86"/></linearGradient>

    <radialGradient id="glowMint" cx="0.5" cy="0.5" r="0.5">
      <stop offset="0" stop-color="#8affb2" stop-opacity="0.55"/>
      <stop offset="1" stop-color="#75ff9f" stop-opacity="0"/>
    </radialGradient>
    <radialGradient id="glowBlue" cx="0.5" cy="0.5" r="0.5">
      <stop offset="0" stop-color="#5a97f5" stop-opacity="0.6"/>
      <stop offset="1" stop-color="#69a8fa" stop-opacity="0"/>
    </radialGradient>
    <radialGradient id="glowTeal" cx="0.5" cy="0.5" r="0.5">
      <stop offset="0" stop-color="#4fe0c4" stop-opacity="0.38"/>
      <stop offset="1" stop-color="#4fe0c4" stop-opacity="0"/>
    </radialGradient>

    <linearGradient id="wMint" x1="0" y1="0" x2="1" y2="0.4">
      <stop offset="0" stop-color="#b6ffd0"/><stop offset="1" stop-color="#75ff9f"/>
    </linearGradient>
    <linearGradient id="wBlue" x1="0" y1="0" x2="1" y2="0.4">
      <stop offset="0" stop-color="#7fe8d8"/><stop offset="1" stop-color="#69a8fa"/>
    </linearGradient>
    <linearGradient id="wDeep" x1="0" y1="0" x2="1" y2="0.3">
      <stop offset="0" stop-color="#4f8cf0"/><stop offset="1" stop-color="#3f74d8"/>
    </linearGradient>

    <linearGradient id="veil" x1="0.5" y1="0" x2="0.5" y2="1">
      <stop offset="0" stop-color="#0d3a4f" stop-opacity="0.1"/>
      <stop offset="0.5" stop-color="#0d3a4f" stop-opacity="0.16"/>
      <stop offset="1" stop-color="#0d3a4f" stop-opacity="0.22"/>
    </linearGradient>
  </defs>

  <!-- base gradient -->
  <rect width="2560" height="1440" fill="url(#bg)"/>

  <!-- depth glows -->
  <ellipse cx="380" cy="180" rx="1500" ry="900" fill="url(#glowMint)"/>
  <ellipse cx="2300" cy="1320" rx="1500" ry="950" fill="url(#glowBlue)"/>
  <ellipse cx="1280" cy="720" rx="1100" ry="700" fill="url(#glowTeal)"/>

  <!-- large soft capsules, echoing the reference layout -->
  <g opacity="0.75">
    <rect x="-150" y="-120" width="1150" height="520" rx="260" fill="#ffffff" fill-opacity="0.1"
          transform="rotate(-42 425 140)"/>
    <rect x="1750" y="520" width="1250" height="560" rx="280" fill="#ffffff" fill-opacity="0.12"
          transform="rotate(-42 2375 800)"/>
    <rect x="820" y="980" width="900" height="420" rx="210" fill="#ffffff" fill-opacity="0.07"
          transform="rotate(-42 1270 1190)"/>
    <rect x="2050" y="-260" width="820" height="380" rx="190" fill="#ffffff" fill-opacity="0.08"
          transform="rotate(-42 2460 -70)"/>
  </g>

  <!-- wave bands -->
  <g transform="rotate(-8 1280 720)">
    <path d="M-400 39.1 Q-400 39.1 -388 42.0 Q-376 44.8 -364 47.9 Q-352 50.9 -340 54.2 Q-328 57.4 -316 60.8 Q-304 64.2 -292 67.8 Q-280 71.3 -268 75.0 Q-256 78.7 -244 82.5 Q-232 86.3 -220 90.2 Q-208 94.1 -196 98.1 Q-184 102.0 -172 106.1 Q-160 110.1 -148 114.1 Q-136 118.1 -124 122.2 Q-112 126.2 -100 130.3 Q-88 134.3 -76 138.3 Q-64 142.3 -52 146.2 Q-40 150.1 -28 154.0 Q-16 157.8 -4 161.6 Q8 165.3 20 168.9 Q32 172.6 44 176.0 Q56 179.5 68 182.8 Q80 186.1 92 189.3 Q104 192.4 116 195.4 Q128 198.3 140 201.1 Q152 203.8 164 206.3 Q176 208.8 188 211.1 Q200 213.3 212 215.3 Q224 217.4 236 219.1 Q248 220.9 260 222.3 Q272 223.8 284 225.0 Q296 226.2 308 227.1 Q320 228.0 332 228.6 Q344 229.3 356 229.6 Q368 229.9 380 229.9 Q392 229.9 404 229.7 Q416 229.4 428 228.8 Q440 228.3 452 227.4 Q464 226.5 476 225.4 Q488 224.2 500 222.8 Q512 221.4 524 219.7 Q536 218.0 548 216.0 Q560 214.0 572 211.8 Q584 209.6 596 207.1 Q608 204.6 620 202.0 Q632 199.3 644 196.3 Q656 193.4 668 190.3 Q680 187.2 692 183.9 Q704 180.6 716 177.2 Q728 173.7 740 170.1 Q752 166.5 764 162.8 Q776 159.1 788 155.2 Q800 151.4 812 147.5 Q824 143.6 836 139.6 Q848 135.6 860 131.6 Q872 127.6 884 123.5 Q896 119.5 908 115.5 Q920 111.4 932 107.4 Q944 103.4 956 99.4 Q968 95.4 980 91.5 Q992 87.6 1004 83.8 Q1016 80.0 1028 76.3 Q1040 72.6 1052 69.0 Q1064 65.4 1076 62.0 Q1088 58.5 1100 55.2 Q1112 52.0 1124 48.9 Q1136 45.8 1148 42.9 Q1160 40.0 1172 37.4 Q1184 34.7 1196 32.3 Q1208 29.8 1220 27.6 Q1232 25.4 1244 23.5 Q1256 21.6 1268 19.9 Q1280 18.2 1292 16.8 Q1304 15.4 1316 14.3 Q1328 13.2 1340 12.4 Q1352 11.6 1364 11.0 Q1376 10.5 1388 10.3 Q1400 10.0 1412 10.1 Q1424 10.1 1436 10.5 Q1448 10.9 1460 11.5 Q1472 12.2 1484 13.1 Q1496 14.1 1508 15.3 Q1520 16.5 1532 18.0 Q1544 19.6 1556 21.3 Q1568 23.1 1580 25.2 Q1592 27.2 1604 29.5 Q1616 31.8 1628 34.3 Q1640 36.9 1652 39.6 Q1664 42.4 1676 45.4 Q1688 48.3 1700 51.5 Q1712 54.7 1724 58.0 Q1736 61.3 1748 64.8 Q1760 68.3 1772 72.0 Q1784 75.6 1796 79.4 Q1808 83.1 1820 87.0 Q1832 90.9 1844 94.8 Q1856 98.7 1868 102.7 Q1880 106.7 1892 110.7 Q1904 114.8 1916 118.8 Q1928 122.9 1940 126.9 Q1952 130.9 1964 134.9 Q1976 139.0 1988 142.9 Q2000 146.9 2012 150.8 Q2024 154.6 2036 158.4 Q2048 162.2 2060 165.9 Q2072 169.6 2084 173.1 Q2096 176.6 2108 180.0 Q2120 183.4 2132 186.6 Q2144 189.9 2156 192.9 Q2168 195.9 2180 198.7 Q2192 201.6 2204 204.2 Q2216 206.8 2228 209.1 Q2240 211.5 2252 213.6 Q2264 215.7 2276 217.6 Q2288 219.5 2300 221.1 Q2312 222.6 2324 224.0 Q2336 225.3 2348 226.3 Q2360 227.3 2372 228.1 Q2384 228.8 2396 229.3 Q2408 229.7 2420 229.9 Q2432 230.0 2444 229.9 Q2456 229.7 2468 229.3 Q2480 228.8 2492 228.1 Q2504 227.3 2516 226.3 Q2528 225.3 2540 224.0 Q2552 222.6 2564 221.1 Q2576 219.5 2588 217.6 Q2600 215.7 2612 213.6 Q2624 211.5 2636 209.1 Q2648 206.8 2660 204.2 Q2672 201.6 2684 198.7 Q2696 195.9 2708 192.9 Q2720 189.9 2732 186.6 Q2744 183.4 2756 180.0 Q2768 176.6 2780 173.1 Q2792 169.6 2804 165.9 Q2816 162.2 2828 158.4 Q2840 154.6 2852 150.7 Q2864 146.9 2876 142.9 Q2888 139.0 2900 134.9 Q2912 130.9 2924 126.9 Q2936 122.9 2948 118.8 L2960 114.8 L2960 479.6 Q2960 479.6 2948 481.8 Q2936 484.1 2924 486.3 Q2912 488.4 2900 490.5 Q2888 492.7 2876 494.7 Q2864 496.7 2852 498.7 Q2840 500.7 2828 502.5 Q2816 504.4 2804 506.2 Q2792 508.0 2780 509.6 Q2768 511.3 2756 512.9 Q2744 514.4 2732 515.9 Q2720 517.4 2708 518.7 Q2696 520.0 2684 521.3 Q2672 522.5 2660 523.6 Q2648 524.7 2636 525.6 Q2624 526.6 2612 527.4 Q2600 528.3 2588 529.0 Q2576 529.7 2564 530.2 Q2552 530.8 2540 531.2 Q2528 531.6 2516 531.9 Q2504 532.2 2492 532.3 Q2480 532.5 2468 532.5 Q2456 532.5 2444 532.3 Q2432 532.2 2420 531.9 Q2408 531.6 2396 531.1 Q2384 530.7 2372 530.1 Q2360 529.6 2348 528.9 Q2336 528.2 2324 527.3 Q2312 526.5 2300 525.5 Q2288 524.5 2276 523.4 Q2264 522.3 2252 521.1 Q2240 519.8 2228 518.5 Q2216 517.1 2204 515.7 Q2192 514.2 2180 512.6 Q2168 511.0 2156 509.3 Q2144 507.7 2132 505.9 Q2120 504.1 2108 502.2 Q2096 500.3 2084 498.4 Q2072 496.4 2060 494.4 Q2048 492.3 2036 490.2 Q2024 488.1 2012 485.9 Q2000 483.7 1988 481.5 Q1976 479.2 1964 476.9 Q1952 474.6 1940 472.3 Q1928 469.9 1916 467.6 Q1904 465.2 1892 462.8 Q1880 460.4 1868 458.0 Q1856 455.6 1844 453.2 Q1832 450.7 1820 448.3 Q1808 445.9 1796 443.5 Q1784 441.0 1772 438.6 Q1760 436.2 1748 433.8 Q1736 431.5 1724 429.1 Q1712 426.8 1700 424.5 Q1688 422.2 1676 419.9 Q1664 417.6 1652 415.4 Q1640 413.2 1628 411.1 Q1616 409.0 1604 406.9 Q1592 404.8 1580 402.8 Q1568 400.8 1556 398.9 Q1544 397.0 1532 395.2 Q1520 393.4 1508 391.7 Q1496 390.0 1484 388.3 Q1472 386.7 1460 385.2 Q1448 383.7 1436 382.3 Q1424 381.0 1412 379.7 Q1400 378.4 1388 377.3 Q1376 376.1 1364 375.1 Q1352 374.1 1340 373.2 Q1328 372.3 1316 371.6 Q1304 370.8 1292 370.2 Q1280 369.6 1268 369.1 Q1256 368.7 1244 368.3 Q1232 368.0 1220 367.8 Q1208 367.6 1196 367.6 Q1184 367.5 1172 367.6 Q1160 367.7 1148 367.9 Q1136 368.2 1124 368.5 Q1112 368.9 1100 369.4 Q1088 370.0 1076 370.6 Q1064 371.3 1052 372.1 Q1040 372.9 1028 373.8 Q1016 374.7 1004 375.8 Q992 376.8 980 378.0 Q968 379.2 956 380.5 Q944 381.8 932 383.2 Q920 384.7 908 386.2 Q896 387.7 884 389.4 Q872 391.0 860 392.8 Q848 394.5 836 396.4 Q824 398.2 812 400.1 Q800 402.1 788 404.1 Q776 406.1 764 408.2 Q752 410.3 740 412.4 Q728 414.6 716 416.8 Q704 419.0 692 421.3 Q680 423.6 668 425.9 Q656 428.2 644 430.6 Q632 433.0 620 435.3 Q608 437.7 596 440.1 Q584 442.6 572 445.0 Q560 447.4 548 449.8 Q536 452.3 524 454.7 Q512 457.1 500 459.5 Q488 461.9 476 464.3 Q464 466.7 452 469.1 Q440 471.4 428 473.8 Q416 476.1 404 478.4 Q392 480.6 380 482.9 Q368 485.1 356 487.3 Q344 489.4 332 491.5 Q320 493.6 308 495.6 Q296 497.7 284 499.6 Q272 501.5 260 503.4 Q248 505.2 236 507.0 Q224 508.7 212 510.4 Q200 512.0 188 513.6 Q176 515.1 164 516.6 Q152 518.0 140 519.3 Q128 520.6 116 521.8 Q104 523.0 92 524.1 Q80 525.1 68 526.1 Q56 527.0 44 527.8 Q32 528.6 20 529.3 Q8 530.0 -4 530.5 Q-16 531.0 -28 531.4 Q-40 531.8 -52 532.0 Q-64 532.3 -76 532.4 Q-88 532.5 -100 532.5 Q-112 532.4 -124 532.2 Q-136 532.1 -148 531.7 Q-160 531.4 -172 530.9 Q-184 530.5 -196 529.9 Q-208 529.3 -220 528.5 Q-232 527.8 -244 526.9 Q-256 526.0 -268 525.0 Q-280 524.0 -292 522.9 Q-304 521.8 -316 520.5 Q-328 519.2 -340 517.9 Q-352 516.5 -364 515.0 Q-376 513.5 -388 511.9 L-400 510.3 Z" fill="url(#wMint)" fill-opacity="0.22"/>
    <path d="M-400 485.3 Q-400 485.3 -388 488.6 Q-376 491.9 -364 495.0 Q-352 498.1 -340 500.9 Q-328 503.7 -316 506.2 Q-304 508.7 -292 510.9 Q-280 513.1 -268 515.0 Q-256 516.9 -244 518.4 Q-232 519.9 -220 521.1 Q-208 522.3 -196 523.1 Q-184 523.9 -172 524.4 Q-160 524.8 -148 524.9 Q-136 525.0 -124 524.7 Q-112 524.4 -100 523.7 Q-88 523.0 -76 522.0 Q-64 521.0 -52 519.6 Q-40 518.2 -28 516.4 Q-16 514.7 -4 512.6 Q8 510.6 20 508.2 Q32 505.8 44 503.1 Q56 500.4 68 497.4 Q80 494.5 92 491.3 Q104 488.0 116 484.6 Q128 481.1 140 477.5 Q152 473.9 164 470.0 Q176 466.2 188 462.3 Q200 458.3 212 454.2 Q224 450.1 236 446.0 Q248 441.8 260 437.6 Q272 433.4 284 429.2 Q296 425.0 308 420.8 Q320 416.6 332 412.5 Q344 408.4 356 404.3 Q368 400.2 380 396.3 Q392 392.4 404 388.6 Q416 384.8 428 381.2 Q440 377.6 452 374.2 Q464 370.8 476 367.6 Q488 364.4 500 361.5 Q512 358.6 524 355.9 Q536 353.3 548 351.0 Q560 348.6 572 346.6 Q584 344.6 596 342.9 Q608 341.3 620 339.9 Q632 338.6 644 337.6 Q656 336.7 668 336.1 Q680 335.5 692 335.2 Q704 335.0 716 335.1 Q728 335.3 740 335.8 Q752 336.3 764 337.2 Q776 338.1 788 339.3 Q800 340.6 812 342.2 Q824 343.8 836 345.7 Q848 347.6 860 349.9 Q872 352.2 884 354.7 Q896 357.3 908 360.1 Q920 363.0 932 366.1 Q944 369.2 956 372.6 Q968 375.9 980 379.5 Q992 383.1 1004 386.8 Q1016 390.6 1028 394.5 Q1040 398.4 1052 402.4 Q1064 406.4 1076 410.6 Q1088 414.7 1100 418.9 Q1112 423.0 1124 427.3 Q1136 431.5 1148 435.7 Q1160 439.9 1172 444.0 Q1184 448.2 1196 452.3 Q1208 456.4 1220 460.4 Q1232 464.4 1244 468.2 Q1256 472.1 1268 475.8 Q1280 479.5 1292 483.0 Q1304 486.5 1316 489.7 Q1328 493.0 1340 496.0 Q1352 499.1 1364 501.8 Q1376 504.6 1388 507.0 Q1400 509.5 1412 511.6 Q1424 513.8 1436 515.6 Q1448 517.4 1460 518.9 Q1472 520.4 1484 521.5 Q1496 522.6 1508 523.4 Q1520 524.1 1532 524.5 Q1544 524.9 1556 524.9 Q1568 524.9 1580 524.6 Q1592 524.2 1604 523.5 Q1616 522.7 1628 521.6 Q1640 520.5 1652 519.1 Q1664 517.6 1676 515.8 Q1688 514.1 1700 511.9 Q1712 509.8 1724 507.4 Q1736 504.9 1748 502.2 Q1760 499.4 1772 496.4 Q1784 493.4 1796 490.2 Q1808 486.9 1820 483.4 Q1832 480.0 1844 476.3 Q1856 472.6 1868 468.8 Q1880 464.9 1892 460.9 Q1904 456.9 1916 452.9 Q1928 448.8 1940 444.6 Q1952 440.4 1964 436.2 Q1976 432.0 1988 427.8 Q2000 423.6 2012 419.4 Q2024 415.2 2036 411.1 Q2048 407.0 2060 403.0 Q2072 398.9 2084 395.0 Q2096 391.1 2108 387.3 Q2120 383.6 2132 380.0 Q2144 376.4 2156 373.0 Q2168 369.7 2180 366.5 Q2192 363.4 2204 360.5 Q2216 357.7 2228 355.1 Q2240 352.5 2252 350.2 Q2264 347.9 2276 346.0 Q2288 344.0 2300 342.4 Q2312 340.8 2324 339.5 Q2336 338.2 2348 337.3 Q2360 336.4 2372 335.9 Q2384 335.3 2396 335.2 Q2408 335.0 2420 335.2 Q2432 335.4 2444 336.0 Q2456 336.6 2468 337.5 Q2480 338.5 2492 339.8 Q2504 341.1 2516 342.7 Q2528 344.4 2540 346.4 Q2552 348.4 2564 350.7 Q2576 353.0 2588 355.6 Q2600 358.2 2612 361.1 Q2624 364.0 2636 367.2 Q2648 370.3 2660 373.7 Q2672 377.1 2684 380.7 Q2696 384.3 2708 388.1 Q2720 391.8 2732 395.8 Q2744 399.7 2756 403.8 Q2768 407.8 2780 411.9 Q2792 416.1 2804 420.3 Q2816 424.4 2828 428.7 Q2840 432.9 2852 437.1 Q2864 441.3 2876 445.4 Q2888 449.6 2900 453.7 Q2912 457.7 2924 461.7 Q2936 465.7 2948 469.5 L2960 473.3 L2960 668.0 Q2960 668.0 2948 665.6 Q2936 663.2 2924 660.9 Q2912 658.6 2900 656.4 Q2888 654.2 2876 652.0 Q2864 649.9 2852 647.8 Q2840 645.8 2828 643.9 Q2816 642.0 2804 640.2 Q2792 638.3 2780 636.7 Q2768 635.0 2756 633.5 Q2744 631.9 2732 630.5 Q2720 629.1 2708 627.9 Q2696 626.7 2684 625.6 Q2672 624.5 2660 623.6 Q2648 622.7 2636 621.9 Q2624 621.2 2612 620.6 Q2600 620.1 2588 619.7 Q2576 619.3 2564 619.1 Q2552 618.8 2540 618.8 Q2528 618.8 2516 618.9 Q2504 619.0 2492 619.4 Q2480 619.7 2468 620.2 Q2456 620.7 2444 621.4 Q2432 622.0 2420 622.9 Q2408 623.7 2396 624.7 Q2384 625.7 2372 626.9 Q2360 628.1 2348 629.4 Q2336 630.7 2324 632.2 Q2312 633.7 2300 635.3 Q2288 636.9 2276 638.7 Q2264 640.4 2252 642.3 Q2240 644.2 2228 646.2 Q2216 648.2 2204 650.3 Q2192 652.4 2180 654.6 Q2168 656.7 2156 659.0 Q2144 661.3 2132 663.6 Q2120 666.0 2108 668.4 Q2096 670.8 2084 673.3 Q2072 675.7 2060 678.2 Q2048 680.7 2036 683.2 Q2024 685.7 2012 688.3 Q2000 690.8 1988 693.3 Q1976 695.8 1964 698.4 Q1952 700.9 1940 703.3 Q1928 705.8 1916 708.3 Q1904 710.7 1892 713.1 Q1880 715.5 1868 717.8 Q1856 720.2 1844 722.4 Q1832 724.7 1820 726.8 Q1808 729.0 1796 731.0 Q1784 733.1 1772 735.1 Q1760 737.0 1748 738.9 Q1736 740.7 1724 742.4 Q1712 744.1 1700 745.7 Q1688 747.3 1676 748.7 Q1664 750.1 1652 751.4 Q1640 752.7 1628 753.8 Q1616 754.9 1604 755.9 Q1592 756.9 1580 757.6 Q1568 758.4 1556 759.0 Q1544 759.7 1532 760.1 Q1520 760.5 1508 760.8 Q1496 761.1 1484 761.2 Q1472 761.2 1460 761.2 Q1448 761.1 1436 760.8 Q1424 760.5 1412 760.1 Q1400 759.6 1388 759.0 Q1376 758.4 1364 757.6 Q1352 756.8 1340 755.8 Q1328 754.8 1316 753.7 Q1304 752.6 1292 751.3 Q1280 750.0 1268 748.6 Q1256 747.1 1244 745.6 Q1232 744.0 1220 742.3 Q1208 740.5 1196 738.7 Q1184 736.9 1172 734.9 Q1160 732.9 1148 730.9 Q1136 728.8 1124 726.6 Q1112 724.5 1100 722.2 Q1088 719.9 1076 717.6 Q1064 715.3 1052 712.9 Q1040 710.5 1028 708.1 Q1016 705.6 1004 703.1 Q992 700.6 980 698.1 Q968 695.6 956 693.1 Q944 690.6 932 688.0 Q920 685.5 908 683.0 Q896 680.5 884 678.0 Q872 675.5 860 673.1 Q848 670.6 836 668.2 Q824 665.8 812 663.4 Q800 661.1 788 658.8 Q776 656.5 764 654.4 Q752 652.2 740 650.1 Q728 648.0 716 646.0 Q704 644.0 692 642.1 Q680 640.3 668 638.5 Q656 636.8 644 635.2 Q632 633.6 620 632.1 Q608 630.6 596 629.3 Q584 628.0 572 626.8 Q560 625.6 548 624.6 Q536 623.6 524 622.8 Q512 622.0 500 621.3 Q488 620.6 476 620.1 Q464 619.7 452 619.3 Q440 619.0 428 618.9 Q416 618.8 404 618.8 Q392 618.9 380 619.1 Q368 619.3 356 619.7 Q344 620.1 332 620.7 Q320 621.3 308 622.0 Q296 622.8 284 623.7 Q272 624.6 260 625.7 Q248 626.8 236 628.0 Q224 629.3 212 630.7 Q200 632.1 188 633.6 Q176 635.1 164 636.8 Q152 638.5 140 640.3 Q128 642.1 116 644.1 Q104 646.0 92 648.0 Q80 650.1 68 652.2 Q56 654.4 44 656.6 Q32 658.8 20 661.1 Q8 663.4 -4 665.8 Q-16 668.2 -28 670.6 Q-40 673.1 -52 675.5 Q-64 678.0 -76 680.5 Q-88 683.0 -100 685.5 Q-112 688.1 -124 690.6 Q-136 693.1 -148 695.6 Q-160 698.2 -172 700.7 Q-184 703.2 -196 705.6 Q-208 708.1 -220 710.5 Q-232 712.9 -244 715.3 Q-256 717.6 -268 719.9 Q-280 722.2 -292 724.4 Q-304 726.7 -316 728.8 Q-328 730.9 -340 732.9 Q-352 734.9 -364 736.8 Q-376 738.7 -388 740.5 L-400 742.3 Z" fill="#ffffff" fill-opacity="0.09"/>
    <path d="M-400 693.9 Q-400 693.9 -388 697.9 Q-376 702.0 -364 706.1 Q-352 710.2 -340 714.2 Q-328 718.3 -316 722.3 Q-304 726.4 -292 730.3 Q-280 734.3 -268 738.2 Q-256 742.1 -244 745.9 Q-232 749.7 -220 753.5 Q-208 757.2 -196 760.8 Q-184 764.4 -172 767.9 Q-160 771.4 -148 774.7 Q-136 778.0 -124 781.2 Q-112 784.4 -100 787.4 Q-88 790.5 -76 793.3 Q-64 796.1 -52 798.8 Q-40 801.4 -28 803.9 Q-16 806.4 -4 808.6 Q8 810.8 20 812.9 Q32 814.9 44 816.7 Q56 818.5 68 820.0 Q80 821.6 92 822.9 Q104 824.3 116 825.3 Q128 826.4 140 827.2 Q152 828.1 164 828.6 Q176 829.2 188 829.5 Q200 829.9 212 829.9 Q224 830.0 236 829.8 Q248 829.6 260 829.2 Q272 828.7 284 828.0 Q296 827.3 308 826.3 Q320 825.4 332 824.2 Q344 823.0 356 821.6 Q368 820.1 380 818.4 Q392 816.7 404 814.8 Q416 812.9 428 810.8 Q440 808.7 452 806.3 Q464 804.0 476 801.4 Q488 798.9 500 796.1 Q512 793.4 524 790.4 Q536 787.5 548 784.4 Q560 781.3 572 778.0 Q584 774.8 596 771.3 Q608 767.9 620 764.4 Q632 760.8 644 757.2 Q656 753.5 668 749.7 Q680 746.0 692 742.1 Q704 738.2 716 734.3 Q728 730.4 740 726.4 Q752 722.4 764 718.3 Q776 714.3 788 710.2 Q800 706.1 812 702.1 Q824 698.0 836 693.9 Q848 689.8 860 685.8 Q872 681.7 884 677.7 Q896 673.6 908 669.7 Q920 665.7 932 661.8 Q944 657.9 956 654.1 Q968 650.3 980 646.5 Q992 642.8 1004 639.2 Q1016 635.6 1028 632.1 Q1040 628.6 1052 625.3 Q1064 622.0 1076 618.8 Q1088 615.6 1100 612.6 Q1112 609.5 1124 606.7 Q1136 603.9 1148 601.2 Q1160 598.6 1172 596.1 Q1184 593.6 1196 591.4 Q1208 589.2 1220 587.1 Q1232 585.1 1244 583.3 Q1256 581.5 1268 580.0 Q1280 578.4 1292 577.1 Q1304 575.7 1316 574.7 Q1328 573.6 1340 572.8 Q1352 571.9 1364 571.4 Q1376 570.8 1388 570.5 Q1400 570.1 1412 570.1 Q1424 570.0 1436 570.2 Q1448 570.4 1460 570.8 Q1472 571.3 1484 572.0 Q1496 572.7 1508 573.7 Q1520 574.6 1532 575.8 Q1544 577.0 1556 578.4 Q1568 579.9 1580 581.6 Q1592 583.3 1604 585.2 Q1616 587.1 1628 589.2 Q1640 591.3 1652 593.7 Q1664 596.0 1676 598.6 Q1688 601.1 1700 603.9 Q1712 606.6 1724 609.6 Q1736 612.5 1748 615.6 Q1760 618.7 1772 622.0 Q1784 625.2 1796 628.7 Q1808 632.1 1820 635.6 Q1832 639.2 1844 642.8 Q1856 646.5 1868 650.3 Q1880 654.0 1892 657.9 Q1904 661.8 1916 665.7 Q1928 669.6 1940 673.6 Q1952 677.6 1964 681.7 Q1976 685.7 1988 689.8 Q2000 693.9 2012 697.9 Q2024 702.0 2036 706.1 Q2048 710.2 2060 714.2 Q2072 718.3 2084 722.3 Q2096 726.4 2108 730.3 Q2120 734.3 2132 738.2 Q2144 742.1 2156 745.9 Q2168 749.7 2180 753.5 Q2192 757.2 2204 760.8 Q2216 764.4 2228 767.9 Q2240 771.4 2252 774.7 Q2264 778.0 2276 781.2 Q2288 784.4 2300 787.4 Q2312 790.5 2324 793.3 Q2336 796.1 2348 798.8 Q2360 801.4 2372 803.9 Q2384 806.4 2396 808.6 Q2408 810.8 2420 812.9 Q2432 814.9 2444 816.7 Q2456 818.5 2468 820.0 Q2480 821.6 2492 822.9 Q2504 824.3 2516 825.3 Q2528 826.4 2540 827.2 Q2552 828.1 2564 828.6 Q2576 829.2 2588 829.5 Q2600 829.9 2612 829.9 Q2624 830.0 2636 829.8 Q2648 829.6 2660 829.2 Q2672 828.7 2684 828.0 Q2696 827.3 2708 826.3 Q2720 825.4 2732 824.2 Q2744 823.0 2756 821.6 Q2768 820.1 2780 818.4 Q2792 816.7 2804 814.8 Q2816 812.9 2828 810.8 Q2840 808.7 2852 806.3 Q2864 804.0 2876 801.4 Q2888 798.9 2900 796.1 Q2912 793.4 2924 790.4 Q2936 787.5 2948 784.4 L2960 781.3 L2960 1151.6 Q2960 1151.6 2948 1153.3 Q2936 1154.9 2924 1156.4 Q2912 1157.9 2900 1159.3 Q2888 1160.8 2876 1162.1 Q2864 1163.4 2852 1164.6 Q2840 1165.8 2828 1166.9 Q2816 1168.1 2804 1169.0 Q2792 1170.0 2780 1170.9 Q2768 1171.8 2756 1172.6 Q2744 1173.3 2732 1174.0 Q2720 1174.6 2708 1175.2 Q2696 1175.7 2684 1176.1 Q2672 1176.5 2660 1176.8 Q2648 1177.1 2636 1177.3 Q2624 1177.4 2612 1177.5 Q2600 1177.5 2588 1177.4 Q2576 1177.3 2564 1177.1 Q2552 1176.9 2540 1176.6 Q2528 1176.3 2516 1175.8 Q2504 1175.4 2492 1174.8 Q2480 1174.2 2468 1173.5 Q2456 1172.8 2444 1172.0 Q2432 1171.2 2420 1170.3 Q2408 1169.4 2396 1168.4 Q2384 1167.3 2372 1166.2 Q2360 1165.0 2348 1163.8 Q2336 1162.5 2324 1161.2 Q2312 1159.8 2300 1158.4 Q2288 1156.9 2276 1155.3 Q2264 1153.8 2252 1152.1 Q2240 1150.5 2228 1148.8 Q2216 1147.0 2204 1145.2 Q2192 1143.4 2180 1141.5 Q2168 1139.6 2156 1137.6 Q2144 1135.6 2132 1133.6 Q2120 1131.5 2108 1129.4 Q2096 1127.3 2084 1125.1 Q2072 1123.0 2060 1120.7 Q2048 1118.5 2036 1116.2 Q2024 1114.0 2012 1111.7 Q2000 1109.3 1988 1107.0 Q1976 1104.6 1964 1102.2 Q1952 1099.9 1940 1097.4 Q1928 1095.0 1916 1092.6 Q1904 1090.2 1892 1087.7 Q1880 1085.3 1868 1082.8 Q1856 1080.4 1844 1077.9 Q1832 1075.5 1820 1073.0 Q1808 1070.6 1796 1068.2 Q1784 1065.7 1772 1063.3 Q1760 1060.9 1748 1058.5 Q1736 1056.1 1724 1053.8 Q1712 1051.4 1700 1049.1 Q1688 1046.8 1676 1044.5 Q1664 1042.2 1652 1040.0 Q1640 1037.7 1628 1035.6 Q1616 1033.4 1604 1031.3 Q1592 1029.1 1580 1027.1 Q1568 1025.0 1556 1023.0 Q1544 1021.0 1532 1019.1 Q1520 1017.2 1508 1015.4 Q1496 1013.5 1484 1011.8 Q1472 1010.0 1460 1008.4 Q1448 1006.7 1436 1005.1 Q1424 1003.6 1412 1002.1 Q1400 1000.6 1388 999.3 Q1376 997.9 1364 996.6 Q1352 995.4 1340 994.2 Q1328 993.0 1316 992.0 Q1304 990.9 1292 990.0 Q1280 989.0 1268 988.2 Q1256 987.4 1244 986.7 Q1232 986.0 1220 985.4 Q1208 984.8 1196 984.3 Q1184 983.9 1172 983.5 Q1160 983.2 1148 982.9 Q1136 982.7 1124 982.6 Q1112 982.5 1100 982.5 Q1088 982.6 1076 982.7 Q1064 982.8 1052 983.1 Q1040 983.4 1028 983.8 Q1016 984.2 1004 984.7 Q992 985.2 980 985.8 Q968 986.4 956 987.2 Q944 987.9 932 988.8 Q920 989.7 908 990.6 Q896 991.6 884 992.7 Q872 993.8 860 995.0 Q848 996.2 836 997.5 Q824 998.8 812 1000.2 Q800 1001.6 788 1003.1 Q776 1004.6 764 1006.2 Q752 1007.8 740 1009.5 Q728 1011.2 716 1013.0 Q704 1014.8 692 1016.6 Q680 1018.5 668 1020.4 Q656 1022.4 644 1024.4 Q632 1026.4 620 1028.5 Q608 1030.6 596 1032.7 Q584 1034.8 572 1037.0 Q560 1039.2 548 1041.5 Q536 1043.7 524 1046.0 Q512 1048.3 500 1050.7 Q488 1053.0 476 1055.4 Q464 1057.8 452 1060.2 Q440 1062.6 428 1065.0 Q416 1067.4 404 1069.8 Q392 1072.3 380 1074.7 Q368 1077.2 356 1079.6 Q344 1082.1 332 1084.5 Q320 1087.0 308 1089.4 Q296 1091.8 284 1094.3 Q272 1096.7 260 1099.1 Q248 1101.5 236 1103.9 Q224 1106.2 212 1108.6 Q200 1110.9 188 1113.2 Q176 1115.5 164 1117.8 Q152 1120.0 140 1122.3 Q128 1124.5 116 1126.6 Q104 1128.8 92 1130.9 Q80 1132.9 68 1135.0 Q56 1137.0 44 1138.9 Q32 1140.9 20 1142.8 Q8 1144.6 -4 1146.4 Q-16 1148.2 -28 1149.9 Q-40 1151.6 -52 1153.3 Q-64 1154.9 -76 1156.4 Q-88 1157.9 -100 1159.3 Q-112 1160.8 -124 1162.1 Q-136 1163.4 -148 1164.6 Q-160 1165.8 -172 1166.9 Q-184 1168.1 -196 1169.0 Q-208 1170.0 -220 1170.9 Q-232 1171.8 -244 1172.6 Q-256 1173.3 -268 1174.0 Q-280 1174.6 -292 1175.2 Q-304 1175.7 -316 1176.1 Q-328 1176.5 -340 1176.8 Q-352 1177.1 -364 1177.3 Q-376 1177.4 -388 1177.5 L-400 1177.5 Z" fill="url(#wBlue)" fill-opacity="0.2"/>
    <path d="M-400 1077.9 Q-400 1077.9 -388 1076.2 Q-376 1074.4 -364 1072.4 Q-352 1070.4 -340 1068.1 Q-328 1065.7 -316 1063.1 Q-304 1060.5 -292 1057.7 Q-280 1054.8 -268 1051.7 Q-256 1048.5 -244 1045.2 Q-232 1041.8 -220 1038.3 Q-208 1034.7 -196 1031.0 Q-184 1027.2 -172 1023.3 Q-160 1019.4 -148 1015.4 Q-136 1011.4 -124 1007.2 Q-112 1003.1 -100 998.9 Q-88 994.7 -76 990.4 Q-64 986.2 -52 981.9 Q-40 977.6 -28 973.4 Q-16 969.1 -4 964.9 Q8 960.6 20 956.5 Q32 952.3 44 948.2 Q56 944.1 68 940.2 Q80 936.2 92 932.4 Q104 928.6 116 925.0 Q128 921.3 140 917.9 Q152 914.4 164 911.2 Q176 908.0 188 905.0 Q200 902.0 212 899.2 Q224 896.5 236 894.1 Q248 891.6 260 889.4 Q272 887.3 284 885.4 Q296 883.6 308 882.0 Q320 880.5 332 879.3 Q344 878.1 356 877.2 Q368 876.4 380 875.9 Q392 875.3 404 875.2 Q416 875.0 428 875.2 Q440 875.4 452 875.9 Q464 876.4 476 877.3 Q488 878.1 500 879.3 Q512 880.5 524 882.1 Q536 883.6 548 885.5 Q560 887.3 572 889.5 Q584 891.7 596 894.1 Q608 896.6 620 899.3 Q632 902.0 644 905.0 Q656 908.0 668 911.3 Q680 914.5 692 917.9 Q704 921.4 716 925.0 Q728 928.7 740 932.5 Q752 936.3 764 940.3 Q776 944.2 788 948.3 Q800 952.4 812 956.6 Q824 960.7 836 965.0 Q848 969.2 860 973.5 Q872 977.7 884 982.0 Q896 986.3 908 990.5 Q920 994.8 932 999.0 Q944 1003.2 956 1007.3 Q968 1011.5 980 1015.5 Q992 1019.5 1004 1023.4 Q1016 1027.3 1028 1031.1 Q1040 1034.8 1052 1038.3 Q1064 1041.9 1076 1045.3 Q1088 1048.6 1100 1051.7 Q1112 1054.8 1124 1057.7 Q1136 1060.6 1148 1063.2 Q1160 1065.8 1172 1068.1 Q1184 1070.4 1196 1072.5 Q1208 1074.5 1220 1076.2 Q1232 1077.9 1244 1079.3 Q1256 1080.7 1268 1081.7 Q1280 1082.8 1292 1083.5 Q1304 1084.2 1316 1084.5 Q1328 1084.9 1340 1084.9 Q1352 1084.9 1364 1084.6 Q1376 1084.3 1388 1083.6 Q1400 1082.9 1412 1081.9 Q1424 1080.8 1436 1079.5 Q1448 1078.1 1460 1076.4 Q1472 1074.8 1484 1072.8 Q1496 1070.8 1508 1068.5 Q1520 1066.2 1532 1063.6 Q1544 1061.0 1556 1058.1 Q1568 1055.3 1580 1052.2 Q1592 1049.1 1604 1045.7 Q1616 1042.4 1628 1038.9 Q1640 1035.3 1652 1031.6 Q1664 1027.9 1676 1024.0 Q1688 1020.1 1700 1016.1 Q1712 1012.1 1724 1007.9 Q1736 1003.8 1748 999.6 Q1760 995.4 1772 991.2 Q1784 986.9 1796 982.6 Q1808 978.3 1820 974.1 Q1832 969.8 1844 965.6 Q1856 961.3 1868 957.2 Q1880 953.0 1892 948.9 Q1904 944.8 1916 940.8 Q1928 936.9 1940 933.0 Q1952 929.2 1964 925.6 Q1976 921.9 1988 918.4 Q2000 915.0 2012 911.7 Q2024 908.5 2036 905.5 Q2048 902.5 2060 899.7 Q2072 896.9 2084 894.5 Q2096 892.0 2108 889.8 Q2120 887.6 2132 885.7 Q2144 883.9 2156 882.3 Q2168 880.7 2180 879.5 Q2192 878.3 2204 877.4 Q2216 876.5 2228 876.0 Q2240 875.4 2252 875.2 Q2264 875.0 2276 875.1 Q2288 875.3 2300 875.8 Q2312 876.3 2324 877.1 Q2336 878.0 2348 879.1 Q2360 880.3 2372 881.8 Q2384 883.3 2396 885.2 Q2408 887.0 2420 889.1 Q2432 891.3 2444 893.7 Q2456 896.1 2468 898.9 Q2480 901.6 2492 904.5 Q2504 907.5 2516 910.7 Q2528 913.9 2540 917.4 Q2552 920.8 2564 924.4 Q2576 928.1 2588 931.9 Q2600 935.7 2612 939.6 Q2624 943.6 2636 947.6 Q2648 951.7 2660 955.9 Q2672 960.0 2684 964.3 Q2696 968.5 2708 972.8 Q2720 977.0 2732 981.3 Q2744 985.6 2756 989.8 Q2768 994.1 2780 998.3 Q2792 1002.5 2804 1006.7 Q2816 1010.8 2828 1014.8 Q2840 1018.9 2852 1022.8 Q2864 1026.7 2876 1030.4 Q2888 1034.2 2900 1037.8 Q2912 1041.3 2924 1044.7 Q2936 1048.1 2948 1051.2 L2960 1054.3 L2960 1293.8 Q2960 1293.8 2948 1291.3 Q2936 1288.7 2924 1286.2 Q2912 1283.6 2900 1281.0 Q2888 1278.5 2876 1275.9 Q2864 1273.3 2852 1270.8 Q2840 1268.2 2828 1265.7 Q2816 1263.2 2804 1260.7 Q2792 1258.2 2780 1255.8 Q2768 1253.3 2756 1250.9 Q2744 1248.6 2732 1246.2 Q2720 1243.9 2708 1241.7 Q2696 1239.4 2684 1237.3 Q2672 1235.1 2660 1233.1 Q2648 1231.0 2636 1229.0 Q2624 1227.1 2612 1225.2 Q2600 1223.4 2588 1221.7 Q2576 1219.9 2564 1218.4 Q2552 1216.8 2540 1215.3 Q2528 1213.8 2516 1212.5 Q2504 1211.2 2492 1210.0 Q2480 1208.8 2468 1207.8 Q2456 1206.8 2444 1205.9 Q2432 1205.1 2420 1204.4 Q2408 1203.6 2396 1203.1 Q2384 1202.5 2372 1202.2 Q2360 1201.8 2348 1201.6 Q2336 1201.4 2324 1201.3 Q2312 1201.3 2300 1201.4 Q2288 1201.5 2276 1201.8 Q2264 1202.1 2252 1202.5 Q2240 1203.0 2228 1203.6 Q2216 1204.2 2204 1205.0 Q2192 1205.8 2180 1206.7 Q2168 1207.6 2156 1208.7 Q2144 1209.8 2132 1211.0 Q2120 1212.3 2108 1213.7 Q2096 1215.0 2084 1216.6 Q2072 1218.1 2060 1219.7 Q2048 1221.4 2036 1223.1 Q2024 1224.9 2012 1226.8 Q2000 1228.7 1988 1230.7 Q1976 1232.7 1964 1234.8 Q1952 1236.9 1940 1239.1 Q1928 1241.3 1916 1243.6 Q1904 1245.9 1892 1248.2 Q1880 1250.6 1868 1253.0 Q1856 1255.4 1844 1257.8 Q1832 1260.3 1820 1262.8 Q1808 1265.3 1796 1267.8 Q1784 1270.4 1772 1272.9 Q1760 1275.5 1748 1278.1 Q1736 1280.6 1724 1283.2 Q1712 1285.8 1700 1288.3 Q1688 1290.9 1676 1293.4 Q1664 1295.9 1652 1298.4 Q1640 1300.9 1628 1303.4 Q1616 1305.8 1604 1308.2 Q1592 1310.6 1580 1312.9 Q1568 1315.3 1556 1317.5 Q1544 1319.8 1532 1322.0 Q1520 1324.1 1508 1326.2 Q1496 1328.3 1484 1330.3 Q1472 1332.2 1460 1334.1 Q1448 1336.0 1436 1337.7 Q1424 1339.5 1412 1341.1 Q1400 1342.7 1388 1344.2 Q1376 1345.7 1364 1347.0 Q1352 1348.4 1340 1349.6 Q1328 1350.8 1316 1351.8 Q1304 1352.9 1292 1353.8 Q1280 1354.7 1268 1355.4 Q1256 1356.1 1244 1356.7 Q1232 1357.3 1220 1357.7 Q1208 1358.1 1196 1358.3 Q1184 1358.6 1172 1358.7 Q1160 1358.7 1148 1358.7 Q1136 1358.6 1124 1358.3 Q1112 1358.1 1100 1357.6 Q1088 1357.2 1076 1356.6 Q1064 1356.0 1052 1355.3 Q1040 1354.5 1028 1353.6 Q1016 1352.7 1004 1351.7 Q992 1350.6 980 1349.4 Q968 1348.2 956 1346.8 Q944 1345.5 932 1344.0 Q920 1342.5 908 1340.9 Q896 1339.2 884 1337.5 Q872 1335.7 860 1333.9 Q848 1332.0 836 1330.0 Q824 1328.0 812 1325.9 Q800 1323.8 788 1321.7 Q776 1319.5 764 1317.2 Q752 1315.0 740 1312.6 Q728 1310.3 716 1307.9 Q704 1305.5 692 1303.0 Q680 1300.6 668 1298.1 Q656 1295.6 644 1293.1 Q632 1290.5 620 1288.0 Q608 1285.4 596 1282.8 Q584 1280.3 572 1277.7 Q560 1275.1 548 1272.6 Q536 1270.0 524 1267.5 Q512 1265.0 500 1262.5 Q488 1260.0 476 1257.5 Q464 1255.0 452 1252.6 Q440 1250.2 428 1247.9 Q416 1245.5 404 1243.3 Q392 1241.0 380 1238.8 Q368 1236.6 356 1234.5 Q344 1232.4 332 1230.4 Q320 1228.4 308 1226.6 Q296 1224.7 284 1222.9 Q272 1221.1 260 1219.5 Q248 1217.9 236 1216.3 Q224 1214.8 212 1213.5 Q200 1212.1 188 1210.9 Q176 1209.6 164 1208.6 Q152 1207.5 140 1206.6 Q128 1205.6 116 1204.9 Q104 1204.1 92 1203.5 Q80 1202.9 68 1202.5 Q56 1202.0 44 1201.7 Q32 1201.5 20 1201.4 Q8 1201.3 -4 1201.3 Q-16 1201.4 -28 1201.6 Q-40 1201.8 -52 1202.2 Q-64 1202.6 -76 1203.2 Q-88 1203.7 -100 1204.4 Q-112 1205.2 -124 1206.0 Q-136 1206.9 -148 1208.0 Q-160 1209.0 -172 1210.2 Q-184 1211.4 -196 1212.7 Q-208 1214.0 -220 1215.5 Q-232 1217.0 -244 1218.6 Q-256 1220.2 -268 1221.9 Q-280 1223.6 -292 1225.5 Q-304 1227.3 -316 1229.3 Q-328 1231.3 -340 1233.3 Q-352 1235.4 -364 1237.6 Q-376 1239.7 -388 1242.0 L-400 1244.2 Z" fill="#ffffff" fill-opacity="0.08"/>
    <path d="M-400 1128.6 Q-400 1128.6 -388 1132.4 Q-376 1136.2 -364 1140.1 Q-352 1143.9 -340 1147.9 Q-328 1151.9 -316 1155.9 Q-304 1159.9 -292 1164.0 Q-280 1168.1 -268 1172.2 Q-256 1176.3 -244 1180.4 Q-232 1184.5 -220 1188.6 Q-208 1192.7 -196 1196.8 Q-184 1200.8 -172 1204.9 Q-160 1208.9 -148 1212.8 Q-136 1216.8 -124 1220.7 Q-112 1224.5 -100 1228.3 Q-88 1232.1 -76 1235.7 Q-64 1239.3 -52 1242.8 Q-40 1246.3 -28 1249.7 Q-16 1253.0 -4 1256.2 Q8 1259.4 20 1262.4 Q32 1265.4 44 1268.1 Q56 1270.9 68 1273.5 Q80 1276.1 92 1278.4 Q104 1280.8 116 1282.9 Q128 1285.0 140 1286.9 Q152 1288.7 164 1290.3 Q176 1292.0 188 1293.3 Q200 1294.7 212 1295.7 Q224 1296.8 236 1297.6 Q248 1298.4 260 1298.9 Q272 1299.5 284 1299.7 Q296 1300.0 308 1299.9 Q320 1299.9 332 1299.6 Q344 1299.3 356 1298.7 Q368 1298.1 380 1297.2 Q392 1296.3 404 1295.2 Q416 1294.0 428 1292.6 Q440 1291.2 452 1289.5 Q464 1287.8 476 1285.9 Q488 1284.0 500 1281.8 Q512 1279.6 524 1277.2 Q536 1274.8 548 1272.2 Q560 1269.5 572 1266.7 Q584 1263.9 596 1260.8 Q608 1257.8 620 1254.6 Q632 1251.3 644 1247.9 Q656 1244.6 668 1241.0 Q680 1237.5 692 1233.8 Q704 1230.1 716 1226.3 Q728 1222.5 740 1218.7 Q752 1214.8 764 1210.8 Q776 1206.8 788 1202.8 Q800 1198.7 812 1194.7 Q824 1190.6 836 1186.5 Q848 1182.4 860 1178.3 Q872 1174.1 884 1170.0 Q896 1165.9 908 1161.9 Q920 1157.8 932 1153.8 Q944 1149.8 956 1145.9 Q968 1141.9 980 1138.1 Q992 1134.2 1004 1130.5 Q1016 1126.7 1028 1123.1 Q1040 1119.5 1052 1116.0 Q1064 1112.5 1076 1109.2 Q1088 1105.9 1100 1102.7 Q1112 1099.6 1124 1096.6 Q1136 1093.7 1148 1090.9 Q1160 1088.2 1172 1085.6 Q1184 1083.1 1196 1080.8 Q1208 1078.5 1220 1076.4 Q1232 1074.3 1244 1072.5 Q1256 1070.7 1268 1069.1 Q1280 1067.6 1292 1066.3 Q1304 1064.9 1316 1063.9 Q1328 1062.9 1340 1062.1 Q1352 1061.4 1364 1060.9 Q1376 1060.4 1388 1060.2 Q1400 1060.0 1412 1060.1 Q1424 1060.2 1436 1060.5 Q1448 1060.9 1460 1061.6 Q1472 1062.2 1484 1063.1 Q1496 1064.0 1508 1065.2 Q1520 1066.4 1532 1067.9 Q1544 1069.3 1556 1071.1 Q1568 1072.8 1580 1074.8 Q1592 1076.7 1604 1078.9 Q1616 1081.2 1628 1083.6 Q1640 1086.0 1652 1088.7 Q1664 1091.4 1676 1094.3 Q1688 1097.1 1700 1100.2 Q1712 1103.3 1724 1106.5 Q1736 1109.8 1748 1113.2 Q1760 1116.6 1772 1120.2 Q1784 1123.7 1796 1127.4 Q1808 1131.1 1820 1134.9 Q1832 1138.7 1844 1142.6 Q1856 1146.6 1868 1150.5 Q1880 1154.5 1892 1158.6 Q1904 1162.6 1916 1166.7 Q1928 1170.8 1940 1174.9 Q1952 1179.0 1964 1183.1 Q1976 1187.2 1988 1191.3 Q2000 1195.4 2012 1199.5 Q2024 1203.5 2036 1207.5 Q2048 1211.5 2060 1215.5 Q2072 1219.4 2084 1223.2 Q2096 1227.1 2108 1230.8 Q2120 1234.5 2132 1238.1 Q2144 1241.7 2156 1245.2 Q2168 1248.6 2180 1251.9 Q2192 1255.2 2204 1258.3 Q2216 1261.4 2228 1264.3 Q2240 1267.3 2252 1270.0 Q2264 1272.7 2276 1275.2 Q2288 1277.7 2300 1280.0 Q2312 1282.2 2324 1284.3 Q2336 1286.3 2348 1288.1 Q2360 1289.9 2372 1291.4 Q2384 1292.9 2396 1294.2 Q2408 1295.4 2420 1296.4 Q2432 1297.4 2444 1298.1 Q2456 1298.8 2468 1299.3 Q2480 1299.7 2492 1299.8 Q2504 1300.0 2516 1299.9 Q2528 1299.7 2540 1299.3 Q2552 1298.9 2564 1298.2 Q2576 1297.5 2588 1296.6 Q2600 1295.6 2612 1294.4 Q2624 1293.1 2636 1291.6 Q2648 1290.1 2660 1288.4 Q2672 1286.6 2684 1284.6 Q2696 1282.6 2708 1280.3 Q2720 1278.1 2732 1275.6 Q2744 1273.1 2756 1270.4 Q2768 1267.7 2780 1264.8 Q2792 1261.9 2804 1258.8 Q2816 1255.7 2828 1252.4 Q2840 1249.1 2852 1245.7 Q2864 1242.2 2876 1238.6 Q2888 1235.1 2900 1231.3 Q2912 1227.6 2924 1223.8 Q2936 1220.0 2948 1216.0 L2960 1212.1 L2960 1647.9 Q2960 1647.9 2948 1650.0 Q2936 1652.0 2924 1654.0 Q2912 1656.0 2900 1657.9 Q2888 1659.8 2876 1661.6 Q2864 1663.4 2852 1665.1 Q2840 1666.8 2828 1668.4 Q2816 1670.0 2804 1671.5 Q2792 1673.0 2780 1674.4 Q2768 1675.8 2756 1677.0 Q2744 1678.3 2732 1679.5 Q2720 1680.6 2708 1681.7 Q2696 1682.7 2684 1683.6 Q2672 1684.5 2660 1685.3 Q2648 1686.1 2636 1686.7 Q2624 1687.4 2612 1687.9 Q2600 1688.4 2588 1688.8 Q2576 1689.2 2564 1689.5 Q2552 1689.7 2540 1689.9 Q2528 1690.0 2516 1690.0 Q2504 1690.0 2492 1689.8 Q2480 1689.7 2468 1689.4 Q2456 1689.1 2444 1688.7 Q2432 1688.3 2420 1687.7 Q2408 1687.2 2396 1686.5 Q2384 1685.8 2372 1685.0 Q2360 1684.2 2348 1683.2 Q2336 1682.3 2324 1681.2 Q2312 1680.2 2300 1679.0 Q2288 1677.8 2276 1676.5 Q2264 1675.2 2252 1673.8 Q2240 1672.4 2228 1670.9 Q2216 1669.4 2204 1667.7 Q2192 1666.1 2180 1664.4 Q2168 1662.7 2156 1660.9 Q2144 1659.0 2132 1657.1 Q2120 1655.2 2108 1653.2 Q2096 1651.2 2084 1649.2 Q2072 1647.1 2060 1645.0 Q2048 1642.8 2036 1640.6 Q2024 1638.4 2012 1636.2 Q2000 1633.9 1988 1631.6 Q1976 1629.3 1964 1626.9 Q1952 1624.6 1940 1622.2 Q1928 1619.8 1916 1617.4 Q1904 1615.0 1892 1612.5 Q1880 1610.1 1868 1607.6 Q1856 1605.2 1844 1602.7 Q1832 1600.2 1820 1597.8 Q1808 1595.3 1796 1592.8 Q1784 1590.4 1772 1587.9 Q1760 1585.5 1748 1583.1 Q1736 1580.6 1724 1578.2 Q1712 1575.9 1700 1573.5 Q1688 1571.1 1676 1568.8 Q1664 1566.5 1652 1564.2 Q1640 1562.0 1628 1559.8 Q1616 1557.6 1604 1555.4 Q1592 1553.3 1580 1551.2 Q1568 1549.1 1556 1547.1 Q1544 1545.1 1532 1543.2 Q1520 1541.3 1508 1539.5 Q1496 1537.7 1484 1535.9 Q1472 1534.2 1460 1532.6 Q1448 1530.9 1436 1529.4 Q1424 1527.9 1412 1526.5 Q1400 1525.0 1388 1523.7 Q1376 1522.4 1364 1521.2 Q1352 1520.0 1340 1519.0 Q1328 1517.9 1316 1516.9 Q1304 1516.0 1292 1515.2 Q1280 1514.3 1268 1513.7 Q1256 1513.0 1244 1512.4 Q1232 1511.8 1220 1511.4 Q1208 1511.0 1196 1510.7 Q1184 1510.4 1172 1510.2 Q1160 1510.1 1148 1510.0 Q1136 1510.0 1124 1510.1 Q1112 1510.2 1100 1510.5 Q1088 1510.7 1076 1511.1 Q1064 1511.5 1052 1512.0 Q1040 1512.5 1028 1513.1 Q1016 1513.8 1004 1514.6 Q992 1515.3 980 1516.2 Q968 1517.1 956 1518.2 Q944 1519.2 932 1520.3 Q920 1521.5 908 1522.7 Q896 1524.0 884 1525.4 Q872 1526.8 860 1528.2 Q848 1529.7 836 1531.3 Q824 1532.9 812 1534.6 Q800 1536.3 788 1538.1 Q776 1539.9 764 1541.8 Q752 1543.6 740 1545.6 Q728 1547.6 716 1549.6 Q704 1551.7 692 1553.8 Q680 1555.9 668 1558.1 Q656 1560.3 644 1562.5 Q632 1564.8 620 1567.0 Q608 1569.3 596 1571.7 Q584 1574.0 572 1576.4 Q560 1578.8 548 1581.2 Q536 1583.6 524 1586.1 Q512 1588.5 500 1590.9 Q488 1593.4 476 1595.9 Q464 1598.3 452 1600.8 Q440 1603.3 428 1605.7 Q416 1608.2 404 1610.6 Q392 1613.1 380 1615.5 Q368 1617.9 356 1620.4 Q344 1622.8 332 1625.1 Q320 1627.5 308 1629.8 Q296 1632.2 284 1634.4 Q272 1636.7 260 1638.9 Q248 1641.2 236 1643.3 Q224 1645.5 212 1647.6 Q200 1649.7 188 1651.7 Q176 1653.7 164 1655.6 Q152 1657.6 140 1659.4 Q128 1661.3 116 1663.1 Q104 1664.8 92 1666.5 Q80 1668.1 68 1669.7 Q56 1671.3 44 1672.7 Q32 1674.2 20 1675.5 Q8 1676.8 -4 1678.1 Q-16 1679.3 -28 1680.4 Q-40 1681.5 -52 1682.5 Q-64 1683.5 -76 1684.3 Q-88 1685.2 -100 1685.9 Q-112 1686.7 -124 1687.3 Q-136 1687.9 -148 1688.3 Q-160 1688.8 -172 1689.1 Q-184 1689.5 -196 1689.7 Q-208 1689.9 -220 1689.9 Q-232 1690.0 -244 1689.9 Q-256 1689.9 -268 1689.7 Q-280 1689.5 -292 1689.1 Q-304 1688.8 -316 1688.3 Q-328 1687.8 -340 1687.2 Q-352 1686.6 -364 1685.9 Q-376 1685.1 -388 1684.3 L-400 1683.4 Z" fill="url(#wDeep)" fill-opacity="0.2"/>
  </g>

  <!-- thin wave accents -->
  <g transform="rotate(-8 1280 720)">
    <path d="M-400 160.3 Q-400 160.3 -388 160.8 Q-376 161.3 -364 162.2 Q-352 163.1 -340 164.2 Q-328 165.4 -316 167.0 Q-304 168.5 -292 170.3 Q-280 172.1 -268 174.3 Q-256 176.4 -244 178.8 Q-232 181.2 -220 183.8 Q-208 186.5 -196 189.3 Q-184 192.2 -172 195.2 Q-160 198.3 -148 201.5 Q-136 204.7 -124 208.0 Q-112 211.4 -100 214.8 Q-88 218.3 -76 221.7 Q-64 225.2 -52 228.8 Q-40 232.3 -28 235.8 Q-16 239.3 -4 242.7 Q8 246.2 20 249.6 Q32 253.0 44 256.2 Q56 259.5 68 262.6 Q80 265.7 92 268.6 Q104 271.6 116 274.3 Q128 277.0 140 279.5 Q152 282.0 164 284.2 Q176 286.4 188 288.4 Q200 290.3 212 291.9 Q224 293.6 236 294.9 Q248 296.2 260 297.2 Q272 298.1 284 298.8 Q296 299.4 308 299.7 Q320 300.0 332 299.9 Q344 299.8 356 299.4 Q368 299.0 380 298.2 Q392 297.4 404 296.3 Q416 295.2 428 293.8 Q440 292.3 452 290.6 Q464 288.8 476 286.8 Q488 284.7 500 282.4 Q512 280.1 524 277.5 Q536 274.9 548 272.1 Q560 269.3 572 266.3 Q584 263.3 596 260.1 Q608 256.9 620 253.6 Q632 250.3 644 246.9 Q656 243.5 668 240.0 Q680 236.5 692 233.0 Q704 229.5 716 226.0 Q728 222.5 740 219.0 Q752 215.5 764 212.1 Q776 208.7 788 205.4 Q800 202.1 812 199.0 Q824 195.8 836 192.8 Q848 189.9 860 187.1 Q872 184.3 884 181.8 Q896 179.2 908 176.9 Q920 174.6 932 172.6 Q944 170.6 956 168.9 Q968 167.2 980 165.8 Q992 164.4 1004 163.4 Q1016 162.3 1028 161.6 Q1040 160.9 1052 160.5 Q1064 160.1 1076 160.1 Q1088 160.1 1100 160.4 Q1112 160.7 1124 161.4 Q1136 162.1 1148 163.1 Q1160 164.2 1172 165.5 Q1184 166.9 1196 168.6 Q1208 170.2 1220 172.2 Q1232 174.2 1244 176.5 Q1256 178.7 1268 181.2 Q1280 183.8 1292 186.5 Q1304 189.3 1316 192.2 Q1328 195.2 1340 198.3 Q1352 201.5 1364 204.7 Q1376 208.0 1388 211.4 Q1400 214.8 1412 218.3 Q1424 221.7 1436 225.2 Q1448 228.8 1460 232.3 Q1472 235.8 1484 239.3 Q1496 242.8 1508 246.2 Q1520 249.6 1532 252.9 Q1544 256.2 1556 259.4 Q1568 262.6 1580 265.7 Q1592 268.7 1604 271.5 Q1616 274.3 1628 276.9 Q1640 279.5 1652 281.9 Q1664 284.3 1676 286.3 Q1688 288.4 1700 290.2 Q1712 292.0 1724 293.5 Q1736 294.9 1748 296.1 Q1760 297.2 1772 298.0 Q1784 298.9 1796 299.3 Q1808 299.8 1820 299.9 Q1832 300.0 1844 299.7 Q1856 299.5 1868 298.9 Q1880 298.3 1892 297.4 Q1904 296.4 1916 295.1 Q1928 293.9 1940 292.3 Q1952 290.7 1964 288.8 Q1976 286.8 1988 284.7 Q2000 282.5 2012 280.0 Q2024 277.5 2036 274.8 Q2048 272.1 2060 269.2 Q2072 266.3 2084 263.2 Q2096 260.1 2108 256.9 Q2120 253.6 2132 250.3 Q2144 246.9 2156 243.5 Q2168 240.0 2180 236.5 Q2192 233.0 2204 229.5 Q2216 226.0 2228 222.5 Q2240 219.0 2252 215.5 Q2264 212.1 2276 208.7 Q2288 205.4 2300 202.2 Q2312 198.9 2324 195.9 Q2336 192.8 2348 189.9 Q2360 187.0 2372 184.4 Q2384 181.7 2396 179.3 Q2408 176.9 2420 174.7 Q2432 172.6 2444 170.7 Q2456 168.8 2468 167.3 Q2480 165.7 2492 164.5 Q2504 163.3 2516 162.4 Q2528 161.5 2540 160.9 Q2552 160.4 2564 160.2 Q2576 160.0 2588 160.2 Q2600 160.3 2612 160.8 Q2624 161.3 2636 162.2 Q2648 163.1 2660 164.2 Q2672 165.4 2684 167.0 Q2696 168.5 2708 170.3 Q2720 172.1 2732 174.3 Q2744 176.4 2756 178.8 Q2768 181.2 2780 183.8 Q2792 186.5 2804 189.3 Q2816 192.2 2828 195.2 Q2840 198.3 2852 201.5 Q2864 204.7 2876 208.0 Q2888 211.4 2900 214.8 Q2912 218.3 2924 221.7 Q2936 225.2 2948 228.8 L2960 232.3" fill="none" stroke="#ffffff" stroke-opacity="0.22" stroke-width="3" stroke-linecap="round"/>
    <path d="M-400 391.3 Q-400 391.3 -388 394.4 Q-376 397.5 -364 400.4 Q-352 403.4 -340 406.2 Q-328 409.1 -316 411.7 Q-304 414.4 -292 416.9 Q-280 419.4 -268 421.7 Q-256 424.1 -244 426.2 Q-232 428.3 -220 430.2 Q-208 432.1 -196 433.8 Q-184 435.4 -172 436.9 Q-160 438.3 -148 439.5 Q-136 440.7 -124 441.6 Q-112 442.5 -100 443.2 Q-88 443.9 -76 444.3 Q-64 444.7 -52 444.9 Q-40 445.0 -28 444.9 Q-16 444.8 -4 444.4 Q8 444.0 20 443.3 Q32 442.7 44 441.7 Q56 440.8 68 439.7 Q80 438.5 92 437.1 Q104 435.7 116 434.0 Q128 432.4 140 430.5 Q152 428.6 164 426.5 Q176 424.4 188 422.1 Q200 419.8 212 417.3 Q224 414.8 236 412.2 Q248 409.5 260 406.7 Q272 403.9 284 400.9 Q296 397.9 308 394.9 Q320 391.8 332 388.6 Q344 385.4 356 382.2 Q368 378.9 380 375.6 Q392 372.3 404 369.0 Q416 365.6 428 362.2 Q440 358.9 452 355.5 Q464 352.1 476 348.8 Q488 345.4 500 342.1 Q512 338.8 524 335.6 Q536 332.4 548 329.2 Q560 326.1 572 323.1 Q584 320.0 596 317.1 Q608 314.2 620 311.4 Q632 308.7 644 306.1 Q656 303.5 668 301.0 Q680 298.6 692 296.4 Q704 294.1 716 292.1 Q728 290.1 740 288.3 Q752 286.5 764 284.9 Q776 283.3 788 282.0 Q800 280.7 812 279.6 Q824 278.5 836 277.7 Q848 276.8 860 276.3 Q872 275.7 884 275.4 Q896 275.1 908 275.1 Q920 275.0 932 275.3 Q944 275.5 956 276.0 Q968 276.5 980 277.3 Q992 278.0 1004 279.1 Q1016 280.1 1028 281.4 Q1040 282.6 1052 284.1 Q1064 285.7 1076 287.4 Q1088 289.2 1100 291.1 Q1112 293.1 1124 295.3 Q1136 297.5 1148 299.9 Q1160 302.2 1172 304.8 Q1184 307.4 1196 310.1 Q1208 312.8 1220 315.7 Q1232 318.6 1244 321.6 Q1256 324.6 1268 327.7 Q1280 330.8 1292 334.0 Q1304 337.3 1316 340.5 Q1328 343.8 1340 347.1 Q1352 350.5 1364 353.8 Q1376 357.2 1388 360.6 Q1400 364.0 1412 367.3 Q1424 370.7 1436 374.0 Q1448 377.3 1460 380.6 Q1472 383.9 1484 387.1 Q1496 390.3 1508 393.4 Q1520 396.5 1532 399.4 Q1544 402.4 1556 405.3 Q1568 408.1 1580 410.8 Q1592 413.5 1604 416.1 Q1616 418.6 1628 421.0 Q1640 423.3 1652 425.5 Q1664 427.6 1676 429.5 Q1688 431.5 1700 433.2 Q1712 434.9 1724 436.4 Q1736 437.8 1748 439.1 Q1760 440.3 1772 441.3 Q1784 442.3 1796 443.0 Q1808 443.7 1820 444.2 Q1832 444.6 1844 444.8 Q1856 445.0 1868 444.9 Q1880 444.8 1892 444.5 Q1904 444.1 1916 443.5 Q1928 442.9 1940 442.0 Q1952 441.2 1964 440.0 Q1976 438.9 1988 437.5 Q2000 436.2 2012 434.6 Q2024 432.9 2036 431.1 Q2048 429.2 2060 427.2 Q2072 425.1 2084 422.9 Q2096 420.6 2108 418.1 Q2120 415.7 2132 413.0 Q2144 410.4 2156 407.6 Q2168 404.8 2180 401.9 Q2192 398.9 2204 395.9 Q2216 392.8 2228 389.7 Q2240 386.5 2252 383.3 Q2264 380.0 2276 376.7 Q2288 373.4 2300 370.1 Q2312 366.7 2324 363.3 Q2336 360.0 2348 356.6 Q2360 353.2 2372 349.9 Q2384 346.5 2396 343.2 Q2408 339.9 2420 336.7 Q2432 333.4 2444 330.3 Q2456 327.1 2468 324.1 Q2480 321.0 2492 318.1 Q2504 315.2 2516 312.4 Q2528 309.6 2540 306.9 Q2552 304.3 2564 301.8 Q2576 299.4 2588 297.1 Q2600 294.9 2612 292.8 Q2624 290.7 2636 288.9 Q2648 287.0 2660 285.4 Q2672 283.8 2684 282.4 Q2696 281.1 2708 279.9 Q2720 278.8 2732 277.9 Q2744 277.1 2756 276.5 Q2768 275.9 2780 275.5 Q2792 275.2 2804 275.1 Q2816 275.0 2828 275.2 Q2840 275.4 2852 275.8 Q2864 276.3 2876 277.0 Q2888 277.7 2900 278.7 Q2912 279.7 2924 280.9 Q2936 282.2 2948 283.6 L2960 285.1" fill="none" stroke="#ffffff" stroke-opacity="0.14" stroke-width="2" stroke-linecap="round"/>
    <path d="M-400 613.6 Q-400 613.6 -388 614.9 Q-376 616.2 -364 617.2 Q-352 618.1 -340 618.8 Q-328 619.4 -316 619.7 Q-304 620.0 -292 619.9 Q-280 619.8 -268 619.4 Q-256 619.0 -244 618.3 Q-232 617.5 -220 616.4 Q-208 615.4 -196 614.0 Q-184 612.6 -172 610.8 Q-160 609.1 -148 607.1 Q-136 605.2 -124 602.9 Q-112 600.6 -100 598.2 Q-88 595.7 -76 593.0 Q-64 590.3 -52 587.4 Q-40 584.5 -28 581.5 Q-16 578.5 -4 575.4 Q8 572.3 20 569.1 Q32 565.9 44 562.6 Q56 559.4 68 556.2 Q80 553.0 92 549.8 Q104 546.6 116 543.5 Q128 540.4 140 537.4 Q152 534.4 164 531.6 Q176 528.7 188 526.1 Q200 523.4 212 521.0 Q224 518.5 236 516.3 Q248 514.1 260 512.1 Q272 510.2 284 508.5 Q296 506.9 308 505.5 Q320 504.2 332 503.2 Q344 502.2 356 501.5 Q368 500.8 380 500.4 Q392 500.1 404 500.1 Q416 500.1 428 500.4 Q440 500.8 452 501.5 Q464 502.2 476 503.2 Q488 504.2 500 505.6 Q512 506.9 524 508.6 Q536 510.2 548 512.2 Q560 514.1 572 516.4 Q584 518.6 596 521.0 Q608 523.5 620 526.1 Q632 528.8 644 531.6 Q656 534.5 668 537.5 Q680 540.5 692 543.6 Q704 546.7 716 549.9 Q728 553.1 740 556.3 Q752 559.5 764 562.7 Q776 566.0 788 569.2 Q800 572.3 812 575.5 Q824 578.6 836 581.6 Q848 584.6 860 587.5 Q872 590.3 884 593.0 Q896 595.7 908 598.2 Q920 600.7 932 603.0 Q944 605.2 956 607.2 Q968 609.2 980 610.9 Q992 612.6 1004 614.0 Q1016 615.4 1028 616.5 Q1040 617.6 1052 618.3 Q1064 619.0 1076 619.4 Q1088 619.8 1100 619.9 Q1112 620.0 1124 619.7 Q1136 619.4 1148 618.7 Q1160 618.1 1172 617.1 Q1184 616.2 1196 614.9 Q1208 613.6 1220 612.0 Q1232 610.3 1244 608.4 Q1256 606.5 1268 604.4 Q1280 602.2 1292 599.8 Q1304 597.4 1316 594.7 Q1328 592.1 1340 589.3 Q1352 586.5 1364 583.5 Q1376 580.5 1388 577.4 Q1400 574.4 1412 571.2 Q1424 568.0 1436 564.8 Q1448 561.6 1460 558.3 Q1472 555.1 1484 551.9 Q1496 548.7 1508 545.6 Q1520 542.4 1532 539.4 Q1544 536.4 1556 533.5 Q1568 530.6 1580 527.9 Q1592 525.1 1604 522.6 Q1616 520.1 1628 517.8 Q1640 515.5 1652 513.5 Q1664 511.4 1676 509.7 Q1688 507.9 1700 506.5 Q1712 505.0 1724 503.9 Q1736 502.8 1748 502.0 Q1760 501.2 1772 500.7 Q1784 500.2 1796 500.1 Q1808 500.0 1820 500.2 Q1832 500.5 1844 501.1 Q1856 501.6 1868 502.6 Q1880 503.5 1892 504.7 Q1904 506.0 1916 507.5 Q1928 509.1 1940 510.9 Q1952 512.8 1964 514.9 Q1976 517.0 1988 519.4 Q2000 521.8 2012 524.4 Q2024 527.0 2036 529.8 Q2048 532.6 2060 535.5 Q2072 538.5 2084 541.5 Q2096 544.6 2108 547.8 Q2120 550.9 2132 554.1 Q2144 557.4 2156 560.6 Q2168 563.8 2180 567.0 Q2192 570.2 2204 573.4 Q2216 576.5 2228 579.6 Q2240 582.6 2252 585.6 Q2264 588.5 2276 591.2 Q2288 594.0 2300 596.5 Q2312 599.1 2324 601.4 Q2336 603.8 2348 605.8 Q2360 607.9 2372 609.7 Q2384 611.5 2396 613.0 Q2408 614.5 2420 615.7 Q2432 616.9 2444 617.8 Q2456 618.6 2468 619.1 Q2480 619.7 2492 619.8 Q2504 620.0 2516 619.8 Q2528 619.6 2540 619.1 Q2552 618.6 2564 617.7 Q2576 616.9 2588 615.7 Q2600 614.5 2612 613.0 Q2624 611.5 2636 609.7 Q2648 607.9 2660 605.8 Q2672 603.7 2684 601.4 Q2696 599.0 2708 596.5 Q2720 593.9 2732 591.2 Q2744 588.4 2756 585.5 Q2768 582.5 2780 579.5 Q2792 576.4 2804 573.3 Q2816 570.1 2828 566.9 Q2840 563.7 2852 560.5 Q2864 557.3 2876 554.0 Q2888 550.8 2900 547.7 Q2912 544.5 2924 541.4 Q2936 538.4 2948 535.4 L2960 532.5" fill="none" stroke="#ffffff" stroke-opacity="0.22" stroke-width="4" stroke-linecap="round"/>
    <path d="M-400 732.2 Q-400 732.2 -388 735.5 Q-376 738.8 -364 742.2 Q-352 745.5 -340 748.9 Q-328 752.3 -316 755.7 Q-304 759.1 -292 762.5 Q-280 765.9 -268 769.3 Q-256 772.7 -244 776.1 Q-232 779.4 -220 782.7 Q-208 786.0 -196 789.3 Q-184 792.5 -172 795.7 Q-160 798.8 -148 801.9 Q-136 805.0 -124 807.9 Q-112 810.9 -100 813.7 Q-88 816.5 -76 819.1 Q-64 821.8 -52 824.3 Q-40 826.8 -28 829.2 Q-16 831.5 -4 833.7 Q8 835.8 20 837.8 Q32 839.7 44 841.5 Q56 843.2 68 844.8 Q80 846.3 92 847.6 Q104 848.9 116 850.0 Q128 851.1 140 851.9 Q152 852.8 164 853.4 Q176 854.0 188 854.4 Q200 854.8 212 854.9 Q224 855.0 236 854.9 Q248 854.8 260 854.4 Q272 854.0 284 853.4 Q296 852.8 308 852.0 Q320 851.1 332 850.0 Q344 849.0 356 847.7 Q368 846.3 380 844.8 Q392 843.3 404 841.5 Q416 839.8 428 837.8 Q440 835.9 452 833.7 Q464 831.6 476 829.2 Q488 826.9 500 824.4 Q512 821.9 524 819.2 Q536 816.6 548 813.8 Q560 811.0 572 808.0 Q584 805.1 596 802.0 Q608 799.0 620 795.8 Q632 792.6 644 789.4 Q656 786.1 668 782.8 Q680 779.5 692 776.2 Q704 772.8 716 769.4 Q728 766.0 740 762.6 Q752 759.2 764 755.8 Q776 752.4 788 749.0 Q800 745.6 812 742.3 Q824 738.9 836 735.6 Q848 732.3 860 729.1 Q872 725.9 884 722.7 Q896 719.6 908 716.6 Q920 713.5 932 710.6 Q944 707.7 956 704.9 Q968 702.2 980 699.5 Q992 696.9 1004 694.4 Q1016 692.0 1028 689.7 Q1040 687.4 1052 685.3 Q1064 683.2 1076 681.3 Q1088 679.4 1100 677.7 Q1112 676.0 1124 674.5 Q1136 673.0 1148 671.7 Q1160 670.5 1172 669.5 Q1184 668.4 1196 667.6 Q1208 666.9 1220 666.3 Q1232 665.8 1244 665.4 Q1256 665.1 1268 665.1 Q1280 665.0 1292 665.2 Q1304 665.4 1316 665.8 Q1328 666.2 1340 666.9 Q1352 667.6 1364 668.5 Q1376 669.4 1388 670.5 Q1400 671.7 1412 673.0 Q1424 674.4 1436 676.0 Q1448 677.6 1460 679.4 Q1472 681.2 1484 683.2 Q1496 685.2 1508 687.4 Q1520 689.6 1532 691.9 Q1544 694.3 1556 696.9 Q1568 699.4 1580 702.1 Q1592 704.8 1604 707.7 Q1616 710.5 1628 713.5 Q1640 716.4 1652 719.5 Q1664 722.6 1676 725.8 Q1688 729.0 1700 732.2 Q1712 735.5 1724 738.8 Q1736 742.1 1748 745.5 Q1760 748.9 1772 752.3 Q1784 755.7 1796 759.1 Q1808 762.5 1820 765.9 Q1832 769.3 1844 772.7 Q1856 776.1 1868 779.4 Q1880 782.7 1892 786.0 Q1904 789.3 1916 792.5 Q1928 795.7 1940 798.8 Q1952 801.9 1964 804.9 Q1976 807.9 1988 810.8 Q2000 813.7 2012 816.4 Q2024 819.2 2036 821.8 Q2048 824.4 2060 826.8 Q2072 829.2 2084 831.5 Q2096 833.7 2108 835.8 Q2120 837.8 2132 839.7 Q2144 841.5 2156 843.2 Q2168 844.8 2180 846.2 Q2192 847.7 2204 848.9 Q2216 850.1 2228 851.0 Q2240 852.0 2252 852.7 Q2264 853.5 2276 854.0 Q2288 854.4 2300 854.7 Q2312 854.9 2324 854.9 Q2336 854.9 2348 854.7 Q2360 854.5 2372 854.0 Q2384 853.5 2396 852.8 Q2408 852.0 2420 851.1 Q2432 850.1 2444 848.9 Q2456 847.7 2468 846.3 Q2480 844.9 2492 843.2 Q2504 841.6 2516 839.7 Q2528 837.9 2540 835.8 Q2552 833.8 2564 831.5 Q2576 829.3 2588 826.9 Q2600 824.4 2612 821.9 Q2624 819.3 2636 816.5 Q2648 813.8 2660 810.9 Q2672 808.0 2684 805.0 Q2696 802.0 2708 798.9 Q2720 795.8 2732 792.6 Q2744 789.4 2756 786.1 Q2768 782.9 2780 779.5 Q2792 776.2 2804 772.8 Q2816 769.4 2828 766.0 Q2840 762.6 2852 759.2 Q2864 755.8 2876 752.4 Q2888 749.0 2900 745.6 Q2912 742.3 2924 738.9 Q2936 735.6 2948 732.3 L2960 729.1" fill="none" stroke="#ffffff" stroke-opacity="0.14" stroke-width="2" stroke-linecap="round"/>
    <path d="M-400 921.2 Q-400 921.2 -388 923.8 Q-376 926.3 -364 928.7 Q-352 931.1 -340 933.2 Q-328 935.3 -316 937.2 Q-304 939.1 -292 940.8 Q-280 942.4 -268 943.8 Q-256 945.1 -244 946.2 Q-232 947.2 -220 948.0 Q-208 948.8 -196 949.2 Q-184 949.7 -172 949.8 Q-160 950.0 -148 949.8 Q-136 949.7 -124 949.2 Q-112 948.7 -100 948.0 Q-88 947.2 -76 946.1 Q-64 945.1 -52 943.7 Q-40 942.3 -28 940.7 Q-16 939.1 -4 937.2 Q8 935.3 20 933.1 Q32 931.0 44 928.6 Q56 926.2 68 923.7 Q80 921.1 92 918.3 Q104 915.6 116 912.7 Q128 909.7 140 906.7 Q152 903.7 164 900.5 Q176 897.3 188 894.1 Q200 890.9 212 887.6 Q224 884.3 236 881.0 Q248 877.7 260 874.5 Q272 871.2 284 867.9 Q296 864.7 308 861.5 Q320 858.3 332 855.2 Q344 852.1 356 849.2 Q368 846.2 380 843.4 Q392 840.6 404 838.0 Q416 835.3 428 832.9 Q440 830.5 452 828.2 Q464 826.0 476 824.0 Q488 822.1 500 820.3 Q512 818.6 524 817.2 Q536 815.7 548 814.6 Q560 813.4 572 812.5 Q584 811.7 596 811.1 Q608 810.5 620 810.3 Q632 810.0 644 810.1 Q656 810.1 668 810.5 Q680 810.9 692 811.5 Q704 812.2 716 813.2 Q728 814.2 740 815.4 Q752 816.7 764 818.2 Q776 819.8 788 821.6 Q800 823.4 812 825.5 Q824 827.5 836 829.8 Q848 832.1 860 834.6 Q872 837.1 884 839.8 Q896 842.5 908 845.4 Q920 848.3 932 851.3 Q944 854.3 956 857.4 Q968 860.5 980 863.7 Q992 866.9 1004 870.2 Q1016 873.5 1028 876.8 Q1040 880.1 1052 883.4 Q1064 886.6 1076 889.9 Q1088 893.2 1100 896.4 Q1112 899.6 1124 902.7 Q1136 905.8 1148 908.8 Q1160 911.8 1172 914.7 Q1184 917.6 1196 920.3 Q1208 923.0 1220 925.5 Q1232 928.0 1244 930.3 Q1256 932.5 1268 934.6 Q1280 936.7 1292 938.5 Q1304 940.3 1316 941.8 Q1328 943.4 1340 944.6 Q1352 945.9 1364 946.8 Q1376 947.8 1388 948.5 Q1400 949.1 1412 949.5 Q1424 949.9 1436 949.9 Q1448 950.0 1460 949.7 Q1472 949.4 1484 948.9 Q1496 948.3 1508 947.4 Q1520 946.6 1532 945.4 Q1544 944.2 1556 942.8 Q1568 941.3 1580 939.6 Q1592 937.9 1604 935.9 Q1616 933.9 1628 931.7 Q1640 929.5 1652 927.0 Q1664 924.6 1676 921.9 Q1688 919.3 1700 916.5 Q1712 913.7 1724 910.7 Q1736 907.7 1748 904.7 Q1760 901.6 1772 898.4 Q1784 895.2 1796 892.0 Q1808 888.7 1820 885.4 Q1832 882.1 1844 878.8 Q1856 875.5 1868 872.3 Q1880 869.0 1892 865.8 Q1904 862.5 1916 859.4 Q1928 856.2 1940 853.2 Q1952 850.1 1964 847.2 Q1976 844.3 1988 841.6 Q2000 838.8 2012 836.2 Q2024 833.7 2036 831.3 Q2048 828.9 2060 826.8 Q2072 824.7 2084 822.8 Q2096 820.9 2108 819.2 Q2120 817.6 2132 816.2 Q2144 814.9 2156 813.8 Q2168 812.8 2180 812.0 Q2192 811.2 2204 810.8 Q2216 810.3 2228 810.2 Q2240 810.0 2252 810.2 Q2264 810.3 2276 810.8 Q2288 811.3 2300 812.0 Q2312 812.8 2324 813.9 Q2336 814.9 2348 816.3 Q2360 817.7 2372 819.3 Q2384 820.9 2396 822.8 Q2408 824.7 2420 826.9 Q2432 829.0 2444 831.4 Q2456 833.8 2468 836.3 Q2480 838.9 2492 841.7 Q2504 844.4 2516 847.3 Q2528 850.3 2540 853.3 Q2552 856.3 2564 859.5 Q2576 862.7 2588 865.9 Q2600 869.1 2612 872.4 Q2624 875.7 2636 879.0 Q2648 882.3 2660 885.5 Q2672 888.8 2684 892.1 Q2696 895.3 2708 898.5 Q2720 901.7 2732 904.8 Q2744 907.9 2756 910.8 Q2768 913.8 2780 916.6 Q2792 919.4 2804 922.0 Q2816 924.7 2828 927.1 Q2840 929.5 2852 931.8 Q2864 934.0 2876 936.0 Q2888 937.9 2900 939.7 Q2912 941.4 2924 942.8 Q2936 944.3 2948 945.4 L2960 946.6" fill="none" stroke="#ffffff" stroke-opacity="0.22" stroke-width="3" stroke-linecap="round"/>
    <path d="M-400 1072.3 Q-400 1072.3 -388 1075.7 Q-376 1079.0 -364 1082.3 Q-352 1085.7 -340 1089.0 Q-328 1092.4 -316 1095.6 Q-304 1098.9 -292 1102.1 Q-280 1105.4 -268 1108.5 Q-256 1111.6 -244 1114.6 Q-232 1117.7 -220 1120.5 Q-208 1123.4 -196 1126.2 Q-184 1128.9 -172 1131.5 Q-160 1134.0 -148 1136.4 Q-136 1138.8 -124 1140.9 Q-112 1143.1 -100 1145.1 Q-88 1147.0 -76 1148.7 Q-64 1150.4 -52 1151.9 Q-40 1153.4 -28 1154.6 Q-16 1155.8 -4 1156.7 Q8 1157.7 20 1158.3 Q32 1159.0 44 1159.4 Q56 1159.8 68 1159.9 Q80 1160.0 92 1159.8 Q104 1159.7 116 1159.2 Q128 1158.8 140 1158.0 Q152 1157.3 164 1156.3 Q176 1155.3 188 1154.1 Q200 1152.8 212 1151.3 Q224 1149.8 236 1148.0 Q248 1146.3 260 1144.3 Q272 1142.3 284 1140.1 Q296 1137.9 308 1135.4 Q320 1133.0 332 1130.4 Q344 1127.8 356 1125.1 Q368 1122.3 380 1119.4 Q392 1116.5 404 1113.4 Q416 1110.4 428 1107.2 Q440 1104.1 452 1100.8 Q464 1097.6 476 1094.3 Q488 1091.0 500 1087.7 Q512 1084.3 524 1081.0 Q536 1077.6 548 1074.3 Q560 1071.0 572 1067.7 Q584 1064.3 596 1061.1 Q608 1057.8 620 1054.7 Q632 1051.5 644 1048.4 Q656 1045.3 668 1042.4 Q680 1039.4 692 1036.6 Q704 1033.8 716 1031.1 Q728 1028.5 740 1026.0 Q752 1023.5 764 1021.3 Q776 1019.0 788 1016.9 Q800 1014.9 812 1013.1 Q824 1011.2 836 1009.6 Q848 1008.0 860 1006.7 Q872 1005.4 884 1004.3 Q896 1003.2 908 1002.4 Q920 1001.6 932 1001.1 Q944 1000.5 956 1000.3 Q968 1000.0 980 1000.1 Q992 1000.1 1004 1000.4 Q1016 1000.7 1028 1001.3 Q1040 1001.9 1052 1002.8 Q1064 1003.6 1076 1004.7 Q1088 1005.9 1100 1007.3 Q1112 1008.6 1124 1010.3 Q1136 1011.9 1148 1013.8 Q1160 1015.7 1172 1017.8 Q1184 1019.9 1196 1022.2 Q1208 1024.5 1220 1027.0 Q1232 1029.5 1244 1032.2 Q1256 1034.9 1268 1037.7 Q1280 1040.6 1292 1043.6 Q1304 1046.6 1316 1049.7 Q1328 1052.7 1340 1055.9 Q1352 1059.1 1364 1062.4 Q1376 1065.7 1388 1069.0 Q1400 1072.3 1412 1075.7 Q1424 1079.0 1436 1082.3 Q1448 1085.7 1460 1089.0 Q1472 1092.4 1484 1095.6 Q1496 1098.9 1508 1102.1 Q1520 1105.4 1532 1108.5 Q1544 1111.6 1556 1114.6 Q1568 1117.7 1580 1120.5 Q1592 1123.4 1604 1126.2 Q1616 1128.9 1628 1131.5 Q1640 1134.0 1652 1136.4 Q1664 1138.8 1676 1140.9 Q1688 1143.1 1700 1145.1 Q1712 1147.0 1724 1148.7 Q1736 1150.4 1748 1151.9 Q1760 1153.4 1772 1154.6 Q1784 1155.8 1796 1156.7 Q1808 1157.7 1820 1158.3 Q1832 1159.0 1844 1159.4 Q1856 1159.8 1868 1159.9 Q1880 1160.0 1892 1159.8 Q1904 1159.7 1916 1159.2 Q1928 1158.8 1940 1158.0 Q1952 1157.3 1964 1156.3 Q1976 1155.3 1988 1154.1 Q2000 1152.8 2012 1151.3 Q2024 1149.8 2036 1148.0 Q2048 1146.3 2060 1144.3 Q2072 1142.3 2084 1140.1 Q2096 1137.9 2108 1135.4 Q2120 1133.0 2132 1130.4 Q2144 1127.8 2156 1125.1 Q2168 1122.3 2180 1119.4 Q2192 1116.5 2204 1113.4 Q2216 1110.4 2228 1107.2 Q2240 1104.1 2252 1100.8 Q2264 1097.6 2276 1094.3 Q2288 1091.0 2300 1087.7 Q2312 1084.3 2324 1081.0 Q2336 1077.6 2348 1074.3 Q2360 1071.0 2372 1067.7 Q2384 1064.3 2396 1061.1 Q2408 1057.8 2420 1054.7 Q2432 1051.5 2444 1048.4 Q2456 1045.3 2468 1042.4 Q2480 1039.4 2492 1036.6 Q2504 1033.8 2516 1031.1 Q2528 1028.5 2540 1026.0 Q2552 1023.5 2564 1021.3 Q2576 1019.0 2588 1016.9 Q2600 1014.9 2612 1013.1 Q2624 1011.2 2636 1009.6 Q2648 1008.0 2660 1006.7 Q2672 1005.4 2684 1004.3 Q2696 1003.2 2708 1002.4 Q2720 1001.6 2732 1001.1 Q2744 1000.5 2756 1000.3 Q2768 1000.0 2780 1000.1 Q2792 1000.1 2804 1000.4 Q2816 1000.7 2828 1001.3 Q2840 1001.9 2852 1002.8 Q2864 1003.6 2876 1004.7 Q2888 1005.9 2900 1007.3 Q2912 1008.6 2924 1010.3 Q2936 1011.9 2948 1013.8 L2960 1015.7" fill="none" stroke="#ffffff" stroke-opacity="0.14" stroke-width="2" stroke-linecap="round"/>
    <path d="M-400 1363.0 Q-400 1363.0 -388 1363.7 Q-376 1364.3 -364 1364.6 Q-352 1364.9 -340 1364.9 Q-328 1364.9 -316 1364.6 Q-304 1364.2 -292 1363.5 Q-280 1362.9 -268 1361.9 Q-256 1360.9 -244 1359.6 Q-232 1358.3 -220 1356.7 Q-208 1355.1 -196 1353.3 Q-184 1351.4 -172 1349.3 Q-160 1347.2 -148 1344.8 Q-136 1342.4 -124 1339.9 Q-112 1337.3 -100 1334.5 Q-88 1331.7 -76 1328.8 Q-64 1325.9 -52 1322.8 Q-40 1319.8 -28 1316.6 Q-16 1313.5 -4 1310.2 Q8 1307.0 20 1303.8 Q32 1300.5 44 1297.2 Q56 1294.0 68 1290.7 Q80 1287.5 92 1284.3 Q104 1281.2 116 1278.1 Q128 1275.0 140 1272.1 Q152 1269.1 164 1266.3 Q176 1263.5 188 1260.9 Q200 1258.3 212 1255.9 Q224 1253.5 236 1251.4 Q248 1249.2 260 1247.3 Q272 1245.4 284 1243.8 Q296 1242.1 308 1240.8 Q320 1239.4 332 1238.4 Q344 1237.4 356 1236.7 Q368 1235.9 380 1235.6 Q392 1235.2 404 1235.1 Q416 1235.0 428 1235.3 Q440 1235.6 452 1236.1 Q464 1236.7 476 1237.6 Q488 1238.5 500 1239.8 Q512 1241.0 524 1242.5 Q536 1244.0 548 1245.8 Q560 1247.6 572 1249.7 Q584 1251.7 596 1254.0 Q608 1256.3 620 1258.9 Q632 1261.4 644 1264.1 Q656 1266.8 668 1269.7 Q680 1272.6 692 1275.6 Q704 1278.7 716 1281.8 Q728 1284.9 740 1288.2 Q752 1291.4 764 1294.6 Q776 1297.9 788 1301.1 Q800 1304.4 812 1307.6 Q824 1310.9 836 1314.1 Q848 1317.3 860 1320.4 Q872 1323.5 884 1326.5 Q896 1329.4 908 1332.3 Q920 1335.1 932 1337.8 Q944 1340.4 956 1342.9 Q968 1345.3 980 1347.5 Q992 1349.8 1004 1351.7 Q1016 1353.7 1028 1355.4 Q1040 1357.1 1052 1358.5 Q1064 1359.9 1076 1361.1 Q1088 1362.2 1100 1363.0 Q1112 1363.8 1124 1364.2 Q1136 1364.7 1148 1364.9 Q1160 1365.0 1172 1364.8 Q1184 1364.6 1196 1364.1 Q1208 1363.6 1220 1362.8 Q1232 1362.0 1244 1360.8 Q1256 1359.7 1268 1358.2 Q1280 1356.8 1292 1355.1 Q1304 1353.3 1316 1351.3 Q1328 1349.3 1340 1347.1 Q1352 1344.9 1364 1342.4 Q1376 1339.9 1388 1337.2 Q1400 1334.6 1412 1331.7 Q1424 1328.9 1436 1325.9 Q1448 1322.9 1460 1319.8 Q1472 1316.6 1484 1313.4 Q1496 1310.2 1508 1307.0 Q1520 1303.8 1532 1300.5 Q1544 1297.2 1556 1294.0 Q1568 1290.7 1580 1287.5 Q1592 1284.3 1604 1281.2 Q1616 1278.1 1628 1275.0 Q1640 1272.0 1652 1269.2 Q1664 1266.3 1676 1263.6 Q1688 1260.9 1700 1258.4 Q1712 1255.9 1724 1253.6 Q1736 1251.3 1748 1249.3 Q1760 1247.2 1772 1245.5 Q1784 1243.7 1796 1242.2 Q1808 1240.7 1820 1239.5 Q1832 1238.3 1844 1237.5 Q1856 1236.6 1868 1236.0 Q1880 1235.5 1892 1235.2 Q1904 1235.0 1916 1235.1 Q1928 1235.2 1940 1235.6 Q1952 1236.1 1964 1236.8 Q1976 1237.6 1988 1238.6 Q2000 1239.7 2012 1241.1 Q2024 1242.4 2036 1244.1 Q2048 1245.7 2060 1247.7 Q2072 1249.6 2084 1251.8 Q2096 1254.0 2108 1256.4 Q2120 1258.8 2132 1261.4 Q2144 1264.1 2156 1266.9 Q2168 1269.7 2180 1272.7 Q2192 1275.6 2204 1278.7 Q2216 1281.8 2228 1285.0 Q2240 1288.1 2252 1291.4 Q2264 1294.6 2276 1297.9 Q2288 1301.1 2300 1304.4 Q2312 1307.7 2324 1310.9 Q2336 1314.1 2348 1317.2 Q2360 1320.4 2372 1323.4 Q2384 1326.5 2396 1329.4 Q2408 1332.3 2420 1335.1 Q2432 1337.8 2444 1340.4 Q2456 1342.9 2468 1345.3 Q2480 1347.6 2492 1349.7 Q2504 1351.8 2516 1353.6 Q2528 1355.5 2540 1357.0 Q2552 1358.6 2564 1359.9 Q2576 1361.1 2588 1362.1 Q2600 1363.0 2612 1363.7 Q2624 1364.3 2636 1364.6 Q2648 1364.9 2660 1364.9 Q2672 1364.9 2684 1364.6 Q2696 1364.2 2708 1363.5 Q2720 1362.9 2732 1361.9 Q2744 1360.9 2756 1359.6 Q2768 1358.3 2780 1356.7 Q2792 1355.1 2804 1353.3 Q2816 1351.4 2828 1349.3 Q2840 1347.2 2852 1344.8 Q2864 1342.4 2876 1339.9 Q2888 1337.3 2900 1334.5 Q2912 1331.7 2924 1328.8 Q2936 1325.9 2948 1322.8 L2960 1319.8" fill="none" stroke="#ffffff" stroke-opacity="0.22" stroke-width="3" stroke-linecap="round"/>
  </g>

  <!-- legibility veil -->
  <rect width="2560" height="1440" fill="url(#veil)"/>
</svg>
